<?xml version="1.0" standalone="no"?>
<!DOCTYPE svg PUBLIC "-//W3C//DTD SVG 20010904//EN"
 "http://www.w3.org/TR/2001/REC-SVG-20010904/DTD/svg10.dtd">
<svg version="1.0" xmlns="http://www.w3.org/2000/svg"
 width="922.000000pt" height="922.000000pt" viewBox="0 0 922.000000 922.000000"
 preserveAspectRatio="xMidYMid meet">
<metadata>
Created by potrace 1.11, written by Peter Selinger 2001-2013
</metadata>
<g transform="translate(0.000000,922.000000) scale(0.100000,-0.100000)"
fill="#000000" stroke="none">
<path d="M1718 7725 c-263 -36 -538 -150 -762 -316 -332 -246 -559 -599 -649
-1007 -21 -96 -21 -111 -25 -1557 -2 -1005 0 -1498 8 -1580 52 -582 415 -1081
949 -1308 228 -96 336 -115 731 -127 434 -13 5181 -13 5295 0 378 44 750 199
1045 437 89 72 267 254 331 338 168 220 297 484 359 739 62 249 61 231 58
1482 -3 1128 -4 1140 -26 1250 -158 793 -727 1404 -1491 1599 -241 62 -158 58
-1451 62 -834 3 -1209 1 -1265 -7 -250 -35 -474 -148 -661 -334 -150 -149
-254 -332 -312 -546 -23 -85 -25 -113 -25 -275 0 -162 2 -190 25 -276 58 -215
160 -393 312 -545 152 -153 324 -251 535 -307 l116 -31 540 -5 c596 -7 566 -3
634 -72 50 -50 65 -87 66 -159 0 -54 -5 -73 -28 -113 -15 -26 -47 -60 -69 -75
l-42 -27 -960 -6 c-853 -4 -971 -7 -1051 -22 -218 -42 -386 -109 -555 -221
-296 -198 -502 -497 -595 -862 -21 -86 -21 -496 0 -661 22 -163 56 -297 110
-427 8 -18 -7 -18 -541 -12 -302 4 -574 12 -604 17 -30 6 -97 31 -149 56 -128
61 -229 160 -289 283 -74 150 -72 130 -72 827 0 343 2 623 4 623 2 0 32 -13
67 -29 300 -136 693 -174 1031 -101 670 145 1190 698 1293 1375 23 150 20 390
-6 544 -109 650 -606 1185 -1248 1346 -173 44 -440 56 -633 30z m422 -929 c30
-9 98 -36 150 -62 80 -40 110 -62 186 -138 76 -77 98 -106 137 -186 54 -110
75 -183 83 -295 27 -360 -215 -696 -564 -786 -95 -24 -259 -26 -351 -3 -90 22
-213 81 -288 138 -121 91 -229 253 -268 401 -39 145 -27 351 28 480 103 244
329 425 581 466 70 11 239 3 306 -15z m5145 -18 c211 -56 377 -149 522 -294
174 -173 281 -391 313 -637 8 -56 10 -408 7 -1107 l-4 -1025 -24 -94 -25 -94
-759 -386 -760 -386 -1185 0 -1185 0 -82 33 c-162 65 -277 167 -352 312 -59
113 -71 175 -71 377 0 151 3 179 21 228 45 121 157 229 286 278 58 22 60 22
1043 27 l985 5 100 28 c116 31 281 108 375 175 244 173 421 447 476 741 19
101 22 315 5 411 -51 290 -222 563 -466 745 -89 66 -266 151 -375 180 -155 40
-239 45 -735 45 -528 0 -517 -1 -584 75 -45 52 -61 93 -61 160 0 112 67 199
175 226 17 4 532 6 1145 5 l1115 -2 100 -26z"/>
</g>
</svg>
